<?xml version="1.0" encoding="utf-8"?>
<!-- Generator: Adobe Illustrator 19.1.0, SVG Export Plug-In . SVG Version: 6.00 Build 0)  -->
<svg version="1.0" id="Layer_2" xmlns="http://www.w3.org/2000/svg" xmlns:xlink="http://www.w3.org/1999/xlink" x="0px" y="0px"
	 viewBox="0 0 120 116.8" style="enable-background:new 0 0 120 116.8;" xml:space="preserve">
<g id="Polygon_1_">
	<g>
		<path style="fill:#2391EE;" d="M97.4,25.5L77.7,94.9L27.5,43.1L97.4,25.5 M101.7,21.3L21.7,41.5l57.4,59.3L101.7,21.3L101.7,21.3z
			"/>
	</g>
</g>
<g id="Circle_3_">
	<g>
		<path style="fill:#FE6192;" d="M75.5,21.1c2.6,0,4.7,2.1,4.7,4.7c0,2.6-2.1,4.7-4.7,4.7s-4.7-2.1-4.7-4.7
			C70.8,23.2,72.9,21.1,75.5,21.1 M75.5,16.1c-5.4,0-9.7,4.4-9.7,9.7c0,5.4,4.4,9.7,9.7,9.7s9.7-4.4,9.7-9.7
			C85.3,20.4,80.9,16.1,75.5,16.1L75.5,16.1z"/>
	</g>
</g>
</svg>
