<?xml version="1.0" encoding="utf-8"?>
<!-- Generator: Adobe Illustrator 19.1.0, SVG Export Plug-In . SVG Version: 6.00 Build 0)  -->
<svg version="1.0" id="Layer_3" xmlns="http://www.w3.org/2000/svg" xmlns:xlink="http://www.w3.org/1999/xlink" x="0px" y="0px"
	 viewBox="0 0 104.5 99.2" style="enable-background:new 0 0 104.5 99.2;" xml:space="preserve">
<g id="Shape_2_">
	<g>
		<path style="fill-rule:evenodd;clip-rule:evenodd;fill:#50EFCB;" d="M65.6,97.8L63.4,64l-10.6,7c-2-3.5-5.5-5.9-10.8-7.9
			c-6.5-2.4-8.4-5.2-8-12.2c0.5-10.4-4.1-17.5-13.9-21.1c-6.9-2.6-8.1-5.3-7.7-11.7c0.3-5.1-0.6-9.3-2.8-12.7L2.8,9.8
			c1.2,1.9,1.6,4.3,1.5,7.7c-0.6,10.5,3.2,16.3,13.1,20c6.3,2.3,8.8,6.2,8.5,12.9c-0.6,10.5,3.6,16.8,13.4,20.4
			c3.6,1.3,5.7,2.6,6.7,4.6l-10.6,7L65.6,97.8z"/>
	</g>
</g>
</svg>
