<?xml version="1.0" encoding="utf-8"?>
<!-- Generator: Adobe Illustrator 19.1.0, SVG Export Plug-In . SVG Version: 6.00 Build 0)  -->
<svg version="1.0" id="Layer_3" xmlns="http://www.w3.org/2000/svg" xmlns:xlink="http://www.w3.org/1999/xlink" x="0px" y="0px"
	 viewBox="0 0 104.5 107.5" style="enable-background:new 0 0 104.5 107.5;" xml:space="preserve">
<g id="Shape">
	<g>
		<path style="fill-rule:evenodd;clip-rule:evenodd;fill:#2391EE;" d="M75.7,67.3c-9,2.1-14.1-0.4-18.4-8.2
			c-4.2-7.6-10.3-10.6-19.1-8.5c-9.3,2.1-13.7-0.5-17.9-8c-4.4-8-9.8-10.2-18.4-8.2l0.9,3.9c7-1.6,10.6,0,14,6.3
			c5.2,9.5,11.7,12.3,22.2,9.9c6.9-1.6,11.4,0.4,14.8,6.6c5.3,9.5,12.1,12.6,22.7,10.1c7.1-1.6,9.7-0.5,13.3,5.9l3.5-1.9
			C88.9,67.2,84.6,65.2,75.7,67.3z M80.1,57.4c-9,2.1-14.1-0.4-18.4-8.2c-4.2-7.6-10.3-10.6-19.1-8.5c-9.3,2.1-13.7-0.5-17.9-8
			c-4.4-8-9.8-10.2-18.4-8.2l0.9,3.9c7-1.6,10.6,0,14,6.3C26.5,44.1,33,47,43.5,44.6c6.9-1.6,11.4,0.4,14.8,6.6
			c5.3,9.5,12.1,12.6,22.7,10.1c7.1-1.6,9.7-0.5,13.3,5.9l3.5-1.9C93.3,57.3,89,55.4,80.1,57.4z M84.5,47.6
			c-9,2.1-14.1-0.4-18.4-8.2c-4.2-7.6-10.3-10.6-19.1-8.5c-9.3,2.1-13.7-0.5-17.9-8c-4.4-8-9.8-10.2-18.4-8.2l0.9,3.9
			c7-1.6,10.6,0,14,6.3c5.2,9.5,11.7,12.3,22.2,9.9c6.9-1.6,11.4,0.4,14.8,6.6c5.3,9.5,12.1,12.6,22.7,10.1
			c7.1-1.6,9.7-0.5,13.3,5.9l3.5-1.9C97.7,47.5,93.4,45.6,84.5,47.6z"/>
	</g>
</g>
</svg>
