<?xml version="1.0" encoding="utf-8"?>
<!-- Generator: Adobe Illustrator 19.1.0, SVG Export Plug-In . SVG Version: 6.00 Build 0)  -->
<svg version="1.0" id="Layer_3" xmlns="http://www.w3.org/2000/svg" xmlns:xlink="http://www.w3.org/1999/xlink" x="0px" y="0px"
	 viewBox="0 0 104.5 70" style="enable-background:new 0 0 104.5 70;" xml:space="preserve">
<g id="Shape_3_">
	<g>
		<path style="fill-rule:evenodd;clip-rule:evenodd;fill:#2391EE;" d="M76.4,55.9c-8.9,2.1-13.9-0.4-18.2-8.1
			c-4.2-7.5-10.2-10.5-18.9-8.4c-9.2,2.1-13.6-0.5-17.7-7.9c-4.3-7.9-9.7-10-18.2-8.1l0.9,3.8c6.9-1.6,10.4,0,13.9,6.2
			c5.2,9.4,11.5,12.2,21.9,9.8c6.9-1.6,11.2,0.4,14.6,6.5c5.2,9.4,11.9,12.4,22.5,10c7.1-1.6,9.6-0.5,13.1,5.9l3.4-1.9
			C89.5,55.8,85.2,53.9,76.4,55.9z M80.7,46.2c-8.9,2.1-13.9-0.4-18.2-8.1c-4.2-7.5-10.2-10.5-18.9-8.4c-9.2,2.1-13.6-0.5-17.7-7.9
			c-4.3-7.9-9.7-10-18.2-8.1l0.9,3.8c6.9-1.6,10.4,0,13.9,6.2c5.2,9.4,11.5,12.2,21.9,9.8c6.9-1.6,11.2,0.4,14.6,6.5
			c5.2,9.4,11.9,12.4,22.5,10c7.1-1.6,9.6-0.5,13.1,5.9l3.4-1.9C93.8,46.1,89.5,44.2,80.7,46.2z M85.1,36.4
			c-8.9,2.1-13.9-0.4-18.2-8.1c-4.2-7.5-10.2-10.5-18.9-8.4C38.7,22,34.4,19.4,30.3,12C26,4.1,20.6,2,12.2,3.9L13,7.7
			c6.9-1.6,10.4,0,13.9,6.2c5.2,9.4,11.5,12.2,21.9,9.8c6.9-1.6,11.2,0.4,14.6,6.5c5.2,9.4,11.9,12.4,22.5,10
			c7.1-1.6,9.6-0.5,13.1,5.9l3.4-1.9C98.1,36.3,93.9,34.4,85.1,36.4z"/>
	</g>
</g>
</svg>
