<?xml version="1.0" encoding="utf-8"?>
<!-- Generator: Adobe Illustrator 19.1.0, SVG Export Plug-In . SVG Version: 6.00 Build 0)  -->
<svg version="1.0" id="Layer_2" xmlns="http://www.w3.org/2000/svg" xmlns:xlink="http://www.w3.org/1999/xlink" x="0px" y="0px"
	 viewBox="0 0 104.5 81.3" style="enable-background:new 0 0 104.5 81.3;" xml:space="preserve">
<g id="Shape_1_">
	<g>
		<path style="fill-rule:evenodd;clip-rule:evenodd;fill:#FE6192;" d="M100.1,5.7l-1.6,7.7c-0.2,0.9-0.6,1.4-1.8,1.2l-10.1-2.1
			c-0.9-0.2-1.8-0.5-2,0.5l-1.7,9c-0.2,0.9-0.7,1.6-1.8,1.2L71,21.2c-0.9-0.1-1.9-0.3-2.1,0.8l-1.7,9c-0.2,0.9-0.7,1.6-1.8,1.2
			l-10.1-2.1c-0.9-0.2-1.9-0.3-2.1,0.8l-1.9,9.8c-0.3,0.5-0.7,0.7-1.5,0.6l-10.1-2.1c-0.9-0.2-1.8-0.5-2,0.5l-1.7,9
			c-0.2,0.9-0.7,1.6-1.8,1.2l-10.1-2.1c-0.9-0.2-1.9-0.3-2.1,0.8l-1.7,9c-0.2,0.9-0.7,1.6-1.8,1.2L8.1,56.7
			c-0.9-0.2-1.9-0.3-2.1,0.8L3.1,72l2.1,3.7l1.5-7.7c0.2-1,1.3-0.9,2.1-0.8l10.1,2.1c1.1,0.2,1.5-0.3,1.7-1.2l1.8-9
			c0.2-0.9,1.3-0.9,2-0.7l10.1,2.1c1.1,0.2,1.6-0.3,1.8-1.2l1.7-9c0.2-1,1.3-0.9,2.1-0.8l10.1,2.1c1.1,0.2,1.5-0.3,1.7-1.2l1.9-9.3
			c0.4-0.6,1.3-0.5,1.9-0.4l10.1,2.1c1.1,0.2,1.5-0.3,1.7-1.2l1.8-9c0.2-0.9,1.3-0.9,2-0.7L81.7,34c1.1,0.2,1.6-0.3,1.8-1.2l1.7-9
			c0.2-1,1.3-0.9,2.1-0.8l10.1,2.1c1.1,0.2,1.5-0.3,1.7-1.2l3-14.5L100.1,5.7z"/>
	</g>
</g>
</svg>
