<?xml version="1.0" encoding="utf-8"?>
<!-- Generator: Adobe Illustrator 19.1.0, SVG Export Plug-In . SVG Version: 6.00 Build 0)  -->
<svg version="1.0" id="Layer_3" xmlns="http://www.w3.org/2000/svg" xmlns:xlink="http://www.w3.org/1999/xlink" x="0px" y="0px"
	 viewBox="0 0 159.9 131.2" style="enable-background:new 0 0 159.9 131.2;" xml:space="preserve">
<g id="Shape_2_">
	<g>
		<path style="fill-rule:evenodd;clip-rule:evenodd;fill:#50EFCB;" d="M144.2,4.2c-2.1,2.5-5.3,4.1-9.9,5.3
			c-14.7,3.7-21,11.4-21.8,26.4c-0.5,9.6-4.7,14.7-14,17C83.8,56.6,77,65,76.2,80c-0.3,5.5-1.1,8.8-3.5,11.1L58.6,79.6l-8.3,47.7
			l45.5-17.5L81.7,98.4c3.9-4.3,5.8-10,6.2-18c0.5-9.9,3.6-13.7,13.3-16.1c14.5-3.7,22.2-13.1,23-27.9C124.7,25.7,128,23,137,20.8
			c7.2-1.8,12.5-4.9,16.2-9.3L144.2,4.2z"/>
	</g>
</g>
</svg>
