<?xml version="1.0" encoding="utf-8"?>
<!-- Generator: Adobe Illustrator 19.1.0, SVG Export Plug-In . SVG Version: 6.00 Build 0)  -->
<svg version="1.0" id="Layer_2" xmlns="http://www.w3.org/2000/svg" xmlns:xlink="http://www.w3.org/1999/xlink" x="0px" y="0px"
	 viewBox="0 0 159.9 131.2" style="enable-background:new 0 0 159.9 131.2;" xml:space="preserve">
<g id="Shape_3_">
	<g>
		<path style="fill-rule:evenodd;clip-rule:evenodd;fill:#2391EE;" d="M116.8,95.2c-14,3.2-21.7-0.6-28.4-12.7
			c-6.5-11.8-15.9-16.4-29.6-13.2C44.4,72.6,37.6,68.6,31.2,57C24.4,44.7,16,41.3,2.8,44.3l1.3,6c10.9-2.5,16.3,0,21.7,9.7
			c8.1,14.6,18,19.1,34.3,15.3c10.7-2.5,17.6,0.6,22.9,10.2c8.2,14.8,18.7,19.4,35.1,15.7c11-2.5,15.1-0.7,20.5,9.2l5.4-3
			C137.2,95,130.5,92,116.8,95.2z M130.4,64.8c-14,3.2-21.7-0.6-28.4-12.7c-6.5-11.8-15.9-16.4-29.6-13.2
			C58,42.2,51.2,38.2,44.8,26.6C38,14.3,29.6,10.9,16.4,13.9l1.3,6c10.9-2.5,16.3-0.1,21.7,9.7c8.1,14.6,18,19.1,34.3,15.3
			c10.7-2.5,17.6,0.6,22.9,10.2c8.2,14.8,18.7,19.4,35.1,15.7c11-2.5,15.1-0.7,20.5,9.2l5.4-3C150.8,64.6,144.1,61.6,130.4,64.8z
			 M123.6,80c-14,3.2-21.7-0.6-28.4-12.7c-6.5-11.8-15.9-16.4-29.6-13.2C51.2,57.4,44.4,53.4,38,41.8C31.2,29.5,22.8,26.1,9.6,29.1
			l1.3,6c10.9-2.5,16.3-0.1,21.7,9.7c8.1,14.6,18,19.1,34.3,15.3c10.7-2.5,17.6,0.6,22.9,10.2C98,85.1,108.5,89.7,125,86
			c11-2.5,15.1-0.7,20.5,9.2l5.4-3C144,79.8,137.3,76.8,123.6,80z"/>
	</g>
</g>
</svg>
