<?xml version="1.0" encoding="utf-8"?>
<!-- Generator: Adobe Illustrator 19.1.0, SVG Export Plug-In . SVG Version: 6.00 Build 0)  -->
<svg version="1.0" id="Layer_2" xmlns="http://www.w3.org/2000/svg" xmlns:xlink="http://www.w3.org/1999/xlink" x="0px" y="0px"
	 viewBox="0 0 29.6 18.2" style="enable-background:new 0 0 29.6 18.2;" xml:space="preserve">
<path style="fill-rule:evenodd;clip-rule:evenodd;fill:none;stroke:#F05689;stroke-linejoin:round;stroke-miterlimit:10;" d="
	M16.9,17.5c0,0,1.3-1.2,1.2-1.8c-0.1-0.5-1.8-0.9-1.8-0.9s1.4-1.3,1.2-1.9c-0.1-0.5-1.7-1-1.7-1s1.2-1.5,1-2
	c-0.2-0.5-1.8-0.8-1.8-0.8s1-1.7,0.8-2.3c-0.2-0.5-1.6-0.7-1.6-0.7s1.1-1.2,0.9-1.8c-0.2-0.6-2-1-2-1s1.6-1.2,1.4-1.8
	c-0.2-0.7-2.1-0.9-2.1-0.9"/>
</svg>
