<?xml version="1.0" encoding="utf-8"?>
<!-- Generator: Adobe Illustrator 19.1.0, SVG Export Plug-In . SVG Version: 6.00 Build 0)  -->
<svg version="1.0" id="Layer_1" xmlns="http://www.w3.org/2000/svg" xmlns:xlink="http://www.w3.org/1999/xlink" x="0px" y="0px"
	 viewBox="0 0 159.9 155.9" style="enable-background:new 0 0 159.9 155.9;" xml:space="preserve">
<g id="Shape_1_">
	<g>
		<path style="fill-rule:evenodd;clip-rule:evenodd;fill:#FE6192;" d="M147.6,3.2l-2.3,16c-0.2,1.9-0.9,3-2.5,2.6l-14.5-4.4
			c-1.2-0.4-2.6-1-2.8,1.1L123,37.2c-0.2,1.9-1,3.4-2.5,2.6l-14.5-4.4c-1.3-0.3-2.7-0.5-3,1.6l-2.5,18.7c-0.2,1.9-1,3.4-2.5,2.6
			l-14.5-4.4c-1.2-0.4-2.7-0.6-3,1.6l-2.8,20.4c-0.4,1-1,1.5-2.2,1.2l-14.5-4.4c-1.2-0.4-2.6-1-2.8,1.1l-2.5,18.7
			c-0.2,1.9-1,3.4-2.5,2.6L39,90.6c-1.3-0.3-2.7-0.5-3,1.6l-2.5,18.7c-0.2,1.9-1,3.4-2.5,2.6L16.6,109c-1.2-0.4-2.7-0.6-3,1.6
			l-4.1,30.1l3,7.7l2.1-15.9c0.3-2.1,1.9-1.9,3-1.6l14.5,4.4c1.5,0.5,2.1-0.7,2.4-2.5l2.6-18.7c0.2-1.9,1.9-1.9,2.9-1.5l14.5,4.4
			c1.6,0.4,2.3-0.6,2.5-2.6l2.5-18.7c0.3-2.1,1.9-1.9,3-1.6l14.5,4.4c1.5,0.5,2.1-0.7,2.4-2.5l2.7-19.4c0.5-1.2,1.8-1.1,2.7-0.8
			l14.5,4.4c1.5,0.5,2.1-0.7,2.4-2.5L104,59c0.2-1.9,1.9-1.9,2.9-1.5l14.5,4.4c1.6,0.4,2.3-0.7,2.5-2.6l2.5-18.7
			c0.3-2.1,1.9-1.9,3-1.6l14.5,4.4c1.5,0.5,2.1-0.7,2.4-2.5l4.2-30.1L147.6,3.2z"/>
	</g>
</g>
</svg>
