<?xml version="1.0" encoding="utf-8"?>
<!-- Generator: Adobe Illustrator 19.1.0, SVG Export Plug-In . SVG Version: 6.00 Build 0)  -->
<svg version="1.0" xmlns="http://www.w3.org/2000/svg" xmlns:xlink="http://www.w3.org/1999/xlink" x="0px" y="0px"
	 viewBox="0 0 22.3 22" style="enable-background:new 0 0 22.3 22;" xml:space="preserve">
<g id="triangle_circle">
	<g id="Polygon_1_" style="display:none;">
		<g style="display:inline;">
			<path style="fill:#F06191;" d="M49.6-27.8L29,45L-23.6-9.3L49.6-27.8 M52.5-30.5l-79.9,20.2L30,48.9L52.5-30.5L52.5-30.5z"/>
		</g>
	</g>
	<g id="Circle_2_" style="display:none;">
		<g style="display:inline;">
			<path style="fill:#458BC9;" d="M10.5-1.3c9.4,0,17.1,7.7,17.1,17.1c0,9.4-7.7,17.1-17.1,17.1S-6.6,25.2-6.6,15.8
				C-6.6,6.3,1.1-1.3,10.5-1.3 M10.5-17.3c-18.3,0-33.1,14.8-33.1,33.1c0,18.3,14.8,33.1,33.1,33.1s33.1-14.8,33.1-33.1
				C43.6-2.5,28.8-17.3,10.5-17.3L10.5-17.3z"/>
		</g>
	</g>
	<g id="Shape_2_" style="display:none;">
		<g style="display:inline;">
			<path style="fill-rule:evenodd;clip-rule:evenodd;fill:#77CABA;" d="M18.4,1.6c-0.3,0.3-0.7,0.5-1.3,0.7
				c-1.9,0.5-2.7,1.5-2.8,3.5c-0.1,1.2-0.6,1.9-1.8,2.2c-1.9,0.5-2.8,1.6-2.9,3.5c0,0.7-0.1,1.2-0.5,1.5l-1.8-1.5l-1.1,6.2l5.9-2.3
				l-1.8-1.5c0.5-0.6,0.8-1.3,0.8-2.4c0.1-1.3,0.5-1.8,1.7-2.1c1.9-0.5,2.9-1.7,3-3.6c0.1-1.4,0.5-1.7,1.7-2
				c0.9-0.2,1.6-0.6,2.1-1.2L18.4,1.6z"/>
		</g>
	</g>
</g>
<g id="Layer_3">
	<path style="fill-rule:evenodd;clip-rule:evenodd;fill:none;stroke:#77CABA;stroke-miterlimit:10;" d="M19,2c0,0-3.1,0.9-3.7,1.6
		c-0.6,0.7,0,3.7-0.6,4.4c-0.7,0.9-3.6,0.3-4.3,1.2c-0.6,0.7-0.9,3.9-0.9,3.9l2.3,1.9l-5.6,2.6l1.1-6.2l2.2,1.8"/>
</g>
<g id="Layer_2">
</g>
</svg>
