<?xml version="1.0" encoding="utf-8"?>
<!-- Generator: Adobe Illustrator 19.1.0, SVG Export Plug-In . SVG Version: 6.00 Build 0)  -->
<svg version="1.0" xmlns="http://www.w3.org/2000/svg" xmlns:xlink="http://www.w3.org/1999/xlink" x="0px" y="0px"
	 viewBox="0 0 29.6 18.2"  xml:space="preserve">
<path id="blueSquiggleOne"  d="M1.9,6.3
	c0,0,1.9-0.5,2.9,0.2c1.5,1.1,2.1,3.2,3.1,3.8c1.8,1,5,0.1,6.3,0.7c1.4,0.6,2.2,3.4,3.7,4c1.1,0.4,3.8-0.4,4.9,0
	c0.6,0.2,2.1,1.7,2.1,1.7"/>
<path id="blueSquiggleTwo" d="M5.9,2.3
	c0,0,1.9-0.5,2.9,0.2c1.5,1.1,2.1,3.2,3.1,3.8c1.8,1,5,0.1,6.3,0.7c1.4,0.6,2.2,3.4,3.7,4c1.1,0.4,3.8-0.4,4.9,0
	c0.6,0.2,2.1,1.7,2.1,1.7"/>
<path id="blueSquiggleThree" d="M3.9,4.3
	c0,0,1.9-0.5,2.9,0.2c1.5,1.1,2.1,3.2,3.1,3.8c1.8,1,5,0.1,6.3,0.7c1.4,0.6,2.2,3.4,3.7,4c1.1,0.4,3.8-0.4,4.9,0
	c0.6,0.2,2.1,1.7,2.1,1.7"/>
</svg>
