<?xml version="1.0" encoding="utf-8"?>
<!-- Generator: Adobe Illustrator 19.1.0, SVG Export Plug-In . SVG Version: 6.00 Build 0)  -->
<svg version="1.0" id="Layer_3" xmlns="http://www.w3.org/2000/svg" xmlns:xlink="http://www.w3.org/1999/xlink" x="0px" y="0px"
	 viewBox="0 0 262.9 242" style="enable-background:new 0 0 262.9 242;" xml:space="preserve">
<g id="Dotted_Circle" style="opacity:0.1216;">
	<g>
		<path style="fill:#010101;" d="M126.3,6.2C126.3,6.2,126.3,6.2,126.3,6.2c-2,0-3.6,1.6-3.6,3.5c0,1.9,1.6,3.5,3.5,3.5c0,0,0,0,0,0
			h0.1c1.9,0,3.5-1.6,3.5-3.5C129.8,7.8,128.2,6.2,126.3,6.2C126.3,6.2,126.3,6.2,126.3,6.2L126.3,6.2z M106,8c-0.2,0-0.4,0-0.6,0.1
			c0,0-0.1,0-0.1,0c-1.9,0.4-3.1,2.2-2.8,4.1c0.3,1.7,1.8,2.9,3.4,2.9c0.2,0,0.4,0,0.6-0.1l0.1,0c1.9-0.3,3.2-2.2,2.8-4.1
			C109.2,9.2,107.7,8,106,8L106,8z M86.4,13.5c-0.4,0-0.8,0.1-1.2,0.2c0,0,0,0-0.1,0c-1.8,0.7-2.7,2.7-2,4.5
			c0.5,1.4,1.9,2.3,3.3,2.3c0.4,0,0.8-0.1,1.2-0.2l0,0c1.8-0.7,2.7-2.7,2-4.5C89.2,14.3,87.9,13.5,86.4,13.5L86.4,13.5z M68.2,22.4
			c-0.6,0-1.2,0.2-1.8,0.5c0,0,0,0,0,0c0,0,0,0,0,0c-1.7,1-2.2,3.2-1.2,4.8c0.7,1.1,1.8,1.7,3,1.7c0.6,0,1.2-0.2,1.8-0.5l0,0
			c1.7-1,2.2-3.2,1.2-4.8C70.5,23,69.3,22.4,68.2,22.4L68.2,22.4z M51.8,34.4c-0.8,0-1.6,0.3-2.3,0.9c0,0-0.1,0-0.1,0.1
			c-1.4,1.3-1.6,3.5-0.3,4.9c0.7,0.8,1.7,1.2,2.6,1.2c0.8,0,1.7-0.3,2.3-0.9l0,0c1.4-1.3,1.6-3.5,0.3-4.9
			C53.7,34.8,52.7,34.4,51.8,34.4L51.8,34.4z M37.8,49.2c-1,0-2.1,0.5-2.7,1.3c0,0,0,0,0,0c0,0,0,0,0,0c-1.2,1.5-0.9,3.7,0.6,4.9
			c0.6,0.5,1.4,0.8,2.2,0.8c1,0,2.1-0.5,2.8-1.3l0,0c1.2-1.5,0.9-3.7-0.6-4.9C39.3,49.4,38.5,49.2,37.8,49.2L37.8,49.2z M26.7,66.2
			c-1.3,0-2.5,0.7-3.1,1.9c0,0,0,0,0,0c0,0,0,0,0,0c-0.9,1.7-0.3,3.8,1.5,4.7c0.5,0.3,1.1,0.4,1.6,0.4c1.3,0,2.5-0.7,3.1-1.9l0,0
			c0.9-1.7,0.3-3.8-1.5-4.7C27.8,66.3,27.2,66.2,26.7,66.2L26.7,66.2z M18.8,84.9c-1.5,0-2.9,1-3.3,2.4c0,0,0,0,0,0.1
			c-0.6,1.8,0.4,3.8,2.3,4.4c0.4,0.1,0.7,0.2,1.1,0.2c1.5,0,2.9-1,3.3-2.4l0,0c0.6-1.8-0.4-3.8-2.3-4.4C19.5,85,19.2,84.9,18.8,84.9
			L18.8,84.9z M14.5,104.8c-1.7,0-3.2,1.3-3.5,3c0,0,0,0.1,0,0.1c-0.2,1.9,1.1,3.6,3,3.9c0.1,0,0.3,0,0.4,0c1.7,0,3.2-1.3,3.5-3.1
			l0-0.1c0.2-1.9-1.1-3.7-3-3.9C14.8,104.8,14.6,104.8,14.5,104.8L14.5,104.8z M13.8,125.1c-0.1,0-0.1,0-0.2,0
			c-1.9,0.1-3.4,1.8-3.3,3.7c0,0,0,0,0,0.1c0.1,1.9,1.6,3.3,3.5,3.3c0.1,0,0.1,0,0.2,0c1.9-0.1,3.4-1.8,3.3-3.7l0-0.1
			C17.2,126.6,15.6,125.1,13.8,125.1L13.8,125.1z M16.7,145.3c-0.3,0-0.5,0-0.8,0.1c-1.9,0.4-3,2.3-2.6,4.2c0,0,0,0,0,0.1
			c0,0,0,0,0,0c0.4,1.6,1.8,2.7,3.4,2.7c0.3,0,0.5,0,0.8-0.1c1.9-0.5,3-2.3,2.6-4.2l0-0.1C19.7,146.3,18.3,145.3,16.7,145.3
			L16.7,145.3z M23.2,164.5c-0.5,0-1,0.1-1.4,0.3c-1.8,0.8-2.6,2.8-1.8,4.6c0,0,0,0,0,0.1c0,0,0,0,0,0c0.6,1.3,1.9,2.1,3.2,2.1
			c0.5,0,1-0.1,1.4-0.3c1.8-0.8,2.6-2.9,1.8-4.6l0,0C25.9,165.3,24.6,164.5,23.2,164.5L23.2,164.5z M33.1,182.3
			c-0.7,0-1.4,0.2-2,0.6c-1.6,1.1-2,3.3-0.9,4.9c0,0,0,0,0,0c0,0,0,0,0,0c0,0,0,0,0,0c0.7,1,1.8,1.5,2.9,1.5c0.7,0,1.4-0.2,2-0.6
			c1.6-1.1,2-3.3,0.9-4.9l0,0C35.3,182.8,34.2,182.3,33.1,182.3L33.1,182.3z M46.1,198c-0.9,0-1.8,0.3-2.5,1c-1.4,1.4-1.4,3.6,0,4.9
			c0,0,0,0,0,0c0,0,0,0,0,0c0.7,0.7,1.6,1,2.5,1c0.9,0,1.8-0.3,2.5-1c1.4-1.4,1.4-3.6,0-5l0,0C47.9,198.3,47,198,46.1,198L46.1,198z
			 M61.6,211.1c-1.1,0-2.2,0.5-2.9,1.5c-1.1,1.6-0.7,3.7,0.8,4.9c0,0,0.1,0,0.1,0.1c0.6,0.4,1.3,0.6,2,0.6c1.1,0,2.2-0.5,2.9-1.5
			c1.1-1.6,0.7-3.8-0.9-4.9l0,0C63,211.3,62.3,211.1,61.6,211.1L61.6,211.1z M79.2,221.3c-1.3,0-2.6,0.8-3.2,2
			c-0.8,1.7,0,3.8,1.7,4.6c0,0,0,0,0,0c0,0,0,0,0,0c0,0,0,0,0,0c0.5,0.2,1,0.3,1.5,0.3c1.3,0,2.6-0.8,3.2-2c0.8-1.8,0-3.8-1.7-4.6
			l0,0C80.2,221.4,79.7,221.3,79.2,221.3L79.2,221.3z M98.4,228.1c-1.6,0-3,1.1-3.4,2.6c-0.5,1.9,0.6,3.8,2.5,4.2c0,0,0,0,0.1,0
			c0,0,0,0,0,0c0.3,0.1,0.6,0.1,0.9,0.1c1.6,0,3-1.1,3.4-2.6c0.5-1.9-0.7-3.8-2.5-4.3l-0.1,0C98.9,228.1,98.6,228.1,98.4,228.1
			L98.4,228.1z M118.4,231.3c-1.8,0-3.4,1.4-3.5,3.3c-0.1,1.9,1.3,3.6,3.3,3.7c0,0,0,0,0,0c0,0,0,0,0,0c0.1,0,0.2,0,0.2,0
			c1.8,0,3.4-1.4,3.5-3.3c0.1-1.9-1.3-3.6-3.3-3.7l-0.1,0C118.6,231.3,118.5,231.3,118.4,231.3L118.4,231.3z M138.8,230.9
			c-0.1,0-0.3,0-0.4,0l-0.1,0c-1.9,0.2-3.3,1.9-3.1,3.9c0.2,1.8,1.7,3.1,3.5,3.1c0.1,0,0.3,0,0.4,0c0,0,0,0,0.1,0
			c1.9-0.2,3.3-1.9,3.1-3.9C142.1,232.2,140.6,230.9,138.8,230.9L138.8,230.9z M158.8,226.8c-0.3,0-0.7,0-1,0.1l0,0
			c-1.9,0.6-2.9,2.5-2.3,4.4c0.5,1.5,1.8,2.5,3.4,2.5c0.3,0,0.7,0,1-0.1c0,0,0,0,0.1,0c1.9-0.6,2.9-2.5,2.3-4.4
			C161.6,227.8,160.3,226.8,158.8,226.8L158.8,226.8z M177.6,219.2c-0.5,0-1.1,0.1-1.6,0.4l0,0c-1.7,0.9-2.4,3-1.5,4.7
			c0.6,1.2,1.8,1.9,3.1,1.9c0.5,0,1.1-0.1,1.6-0.4c0,0,0,0,0,0c0,0,0,0,0,0c1.7-0.9,2.4-3,1.5-4.7
			C180.1,219.9,178.9,219.2,177.6,219.2L177.6,219.2z M194.8,208.4c-0.7,0-1.5,0.2-2.1,0.7l0,0c-1.5,1.2-1.8,3.4-0.6,4.9
			c0.7,0.9,1.7,1.4,2.8,1.4c0.7,0,1.5-0.2,2.1-0.7c0,0,0,0,0,0c0,0,0,0,0,0c1.5-1.2,1.8-3.4,0.6-4.9
			C196.9,208.8,195.8,208.4,194.8,208.4L194.8,208.4z M209.8,194.6c-1,0-1.9,0.4-2.6,1.1l0,0c-1.3,1.4-1.2,3.6,0.2,4.9
			c0.7,0.6,1.5,0.9,2.4,0.9c1,0,1.9-0.4,2.6-1.1c0,0,0,0,0,0c0,0,0,0,0,0c1.3-1.4,1.2-3.6-0.2-4.9
			C211.4,194.9,210.6,194.6,209.8,194.6L209.8,194.6z M222,178.4c-1.2,0-2.3,0.6-3,1.7l0,0c-1,1.6-0.5,3.8,1.1,4.8
			c0.6,0.4,1.2,0.5,1.8,0.5c1.2,0,2.3-0.6,3-1.6c0,0,0,0,0,0c1-1.6,0.5-3.8-1.1-4.8C223.3,178.5,222.7,178.4,222,178.4L222,178.4z
			 M231.2,160.2c-1.4,0-2.7,0.8-3.3,2.2l0,0c-0.7,1.8,0.2,3.8,2,4.5c0.4,0.2,0.9,0.2,1.3,0.2c1.4,0,2.7-0.8,3.3-2.2c0,0,0,0,0,0
			c0,0,0,0,0,0c0.7-1.8-0.2-3.8-2-4.5C232,160.3,231.6,160.2,231.2,160.2L231.2,160.2z M236.9,140.7c-1.6,0-3.1,1.2-3.4,2.8l0,0.1
			c-0.4,1.9,0.9,3.7,2.8,4.1c0.2,0,0.5,0.1,0.7,0.1c1.6,0,3.1-1.1,3.4-2.8c0,0,0,0,0,0c0,0,0,0,0,0c0,0,0,0,0,0
			c0.4-1.9-0.9-3.7-2.8-4.1C237.3,140.7,237.1,140.7,236.9,140.7L236.9,140.7z M239,120.5c-1.9,0-3.5,1.5-3.5,3.5l0,0.1
			c0,1.9,1.5,3.5,3.5,3.5c0,0,0,0,0.1,0c1.9,0,3.5-1.5,3.5-3.4c0,0,0,0,0,0c0,0,0,0,0,0c0,0,0,0,0,0
			C242.5,122.1,240.9,120.5,239,120.5C239,120.5,239,120.5,239,120.5L239,120.5z M237.4,100.2c-0.2,0-0.4,0-0.6,0
			c-1.9,0.3-3.2,2.1-2.9,4l0,0.1c0.3,1.7,1.8,2.9,3.4,2.9c0.2,0,0.4,0,0.6,0c1.9-0.3,3.2-2.1,2.9-4c0,0,0,0,0-0.1
			C240.6,101.4,239.1,100.2,237.4,100.2L237.4,100.2z M232.3,80.5c-0.4,0-0.8,0.1-1.2,0.2c-1.8,0.7-2.8,2.7-2.1,4.5l0,0
			c0.5,1.4,1.9,2.3,3.3,2.3c0.4,0,0.8-0.1,1.2-0.2c1.8-0.7,2.8-2.7,2.1-4.5c0,0,0,0,0-0.1c0,0,0,0,0,0
			C235.1,81.4,233.7,80.5,232.3,80.5L232.3,80.5z M223.6,62.1c-0.6,0-1.2,0.2-1.8,0.5c-1.7,1-2.2,3.1-1.3,4.8l0,0
			c0.7,1.1,1.8,1.7,3,1.7c0.6,0,1.2-0.2,1.8-0.5c1.7-1,2.2-3.1,1.3-4.8c0,0,0,0,0,0c0,0,0,0,0-0.1C226,62.7,224.8,62.1,223.6,62.1
			L223.6,62.1z M211.8,45.5c-0.8,0-1.6,0.3-2.3,0.8c-1.5,1.3-1.6,3.5-0.4,4.9l0,0c0.7,0.8,1.7,1.2,2.7,1.2c0.8,0,1.6-0.3,2.3-0.8
			c1.5-1.3,1.6-3.5,0.4-4.9c0,0,0,0,0,0c0,0,0,0,0,0C213.8,46,212.8,45.5,211.8,45.5L211.8,45.5z M197.3,31.4c-1,0-2,0.4-2.7,1.3
			c-1.2,1.5-1,3.7,0.5,4.9l0,0c0.6,0.5,1.4,0.8,2.2,0.8c1,0,2-0.4,2.7-1.3c1.2-1.5,1-3.7-0.5-4.9c0,0,0,0,0,0c0,0,0,0,0,0
			C198.8,31.6,198,31.4,197.3,31.4L197.3,31.4z M180.4,20c-1.2,0-2.4,0.7-3.1,1.8c-0.9,1.7-0.3,3.8,1.4,4.8l0,0
			c0.5,0.3,1.1,0.4,1.7,0.4c1.2,0,2.4-0.7,3.1-1.8c0.9-1.7,0.3-3.8-1.4-4.8c0,0,0,0,0,0C181.5,20.2,181,20,180.4,20L180.4,20z
			 M161.7,11.9c-1.5,0-2.8,0.9-3.3,2.4c-0.6,1.8,0.4,3.8,2.2,4.4l0,0c0.4,0.1,0.7,0.2,1.1,0.2c1.5,0,2.8-0.9,3.3-2.4
			c0.6-1.8-0.4-3.8-2.2-4.4c0,0,0,0-0.1,0l0,0C162.5,12,162.1,11.9,161.7,11.9L161.7,11.9z M141.9,7.3c-1.7,0-3.2,1.3-3.5,3
			c-0.3,1.9,1.1,3.7,3,3.9l0.1,0c0.2,0,0.3,0,0.5,0c1.7,0,3.2-1.3,3.5-3c0.3-1.9-1.1-3.7-3-3.9c0,0,0,0,0,0c0,0,0,0,0,0c0,0,0,0,0,0
			c0,0,0,0,0,0C142.3,7.3,142.1,7.3,141.9,7.3L141.9,7.3z"/>
	</g>
</g>
</svg>
