<?xml version="1.0" encoding="utf-8"?>
<!-- Generator: Adobe Illustrator 19.1.0, SVG Export Plug-In . SVG Version: 6.00 Build 0)  -->
<svg version="1.0" id="Layer_2" xmlns="http://www.w3.org/2000/svg" xmlns:xlink="http://www.w3.org/1999/xlink" x="0px" y="0px"
	 viewBox="0 0 100.4 90.2" style="enable-background:new 0 0 100.4 90.2;" xml:space="preserve">
<g id="Polygon_1_">
	<g>
		<path style="fill:#FE6192;" d="M78.5,13.7L61.7,73.2L18.7,28.8L78.5,13.7 M87.1,5.4L7.2,25.5l57.4,59.3L87.1,5.4L87.1,5.4z"/>
	</g>
</g>
<g id="Circle_2_">
	<g>
		<path style="fill:#443A8B;" d="M31.8,48.1c6.5,0,11.8,5.3,11.8,11.8c0,6.5-5.3,11.8-11.8,11.8S20,66.5,20,60
			C20,53.4,25.3,48.1,31.8,48.1 M31.8,38.1C19.8,38.1,10,47.9,10,60c0,12.1,9.8,21.8,21.8,21.8S53.7,72,53.7,60
			C53.7,47.9,43.9,38.1,31.8,38.1L31.8,38.1z"/>
	</g>
</g>
</svg>
